# xmcd CD database file
#
# Track frame offsets:
#	150
#	17540
#	34637
#	49777
#	65464
#	76535
#	86397
#	105972
#	120800
#	132550
#	144677
#	159847
#	176877
#	191882
#	204717
#	228885
#	243077
#	255797
#	266975
#	280257
#
# Disc length: 3930 seconds
#
# Revision: 2
# Processed by: cddbd v1.5.1PL0 Copyright (c) Steve Scherf et al.
# Submitted via: CDex 1.51
#
DISCID=000f5814
DTITLE=Various Artist - Narciscus Records  Variety Pack
DYEAR=1900
DGENRE=Country
TTITLE0=I Love My Harley - Michael Scott
TTITLE1=Everybody's Sister - Holly Millet
TTITLE2=You Came Just In Time - James Snipes
TTITLE3=Forever And Ever Amen - James Snipes
TTITLE4=Bright Lights, Big City - Shon Branham
TTITLE5=Travelin Band - James Snipes
TTITLE6=This Time - Brice
TTITLE7=Rock and Roll Lovers - Neale Knight
TTITLE8=Through It All - Shon Branham
TTITLE9=Free Again - Buddy Raye
TTITLE10=Drunk In Missouri - The Bludgers
TTITLE11=I Need The Magic - Brice
TTITLE12=It's Country - Rob Carter
TTITLE13=I Wonder If I Will Ever See Her Face Again - Bobby Parker
TTITLE14=Agent Orange Day - John Hager
TTITLE15=A Love Song For You - Dennis Blunt
TTITLE16=It Ain't Peanuts - Dan Callahan
TTITLE17=Before The World Sees Me Cry - Wayne Carter
TTITLE18=Daddy Finally Made It To Church - Jim Fullen
TTITLE19=Every Time I See A Pig (I Think Of You) - Poison Ivy
EXTD=
EXTT0=
EXTT1=
EXTT2=
EXTT3=
EXTT4=
EXTT5=
EXTT6=
EXTT7=
EXTT8=
EXTT9=
EXTT10=
EXTT11=
EXTT12=
EXTT13=
EXTT14=
EXTT15=
EXTT16=
EXTT17=
EXTT18=
EXTT19=
PLAYORDER=
